<svg width="74" height="74" viewBox="0 0 74 74" fill="none" xmlns="http://www.w3.org/2000/svg">
<path d="M64.7501 37.401C64.2876 37.4318 63.8559 37.586 63.5476 37.9252L60.4642 41.0085L66.7851 47.1752L69.8684 44.0918C70.5467 43.4443 70.5467 42.3652 69.8684 41.7177L66.0451 37.9252C65.7364 37.6064 65.3168 37.4187 64.8734 37.401M58.7067 42.7968L40.0834 61.4818V67.8335H46.4351L65.1201 49.1177M61.6667 12.3335H12.3334C10.6979 12.3335 9.1294 12.9832 7.97292 14.1397C6.81645 15.2961 6.16675 16.8647 6.16675 18.5002V55.5002C6.16675 57.1357 6.81645 58.7042 7.97292 59.8607C9.1294 61.0171 10.6979 61.6668 12.3334 61.6668H33.9167V58.9227L59.3234 33.5777C60.7726 32.0668 62.7767 31.2343 64.8734 31.2343C65.9217 31.2343 66.9701 31.4193 67.9567 31.8202V18.5002C67.9567 15.0468 65.1201 12.3335 61.6667 12.3335ZM61.6667 24.6668L37.0001 40.0835L12.3334 24.6668V18.5002L37.0001 33.9168L61.6667 18.5002" fill="#8CA486"/>
</svg>
