<svg width="74" height="74" viewBox="0 0 74 74" fill="none" xmlns="http://www.w3.org/2000/svg">
<path d="M64.75 52.4168V24.6668H21.5834V52.4168H64.75ZM64.75 9.25016C66.3855 9.25016 67.9541 9.89986 69.1105 11.0563C70.267 12.2128 70.9167 13.7813 70.9167 15.4168V52.4168C70.9167 54.0523 70.267 55.6208 69.1105 56.7773C67.9541 57.9338 66.3855 58.5835 64.75 58.5835H21.5834C19.9479 58.5835 18.3794 57.9338 17.2229 56.7773C16.0664 55.6208 15.4167 54.0523 15.4167 52.4168V15.4168C15.4167 13.7813 16.0664 12.2128 17.2229 11.0563C18.3794 9.89986 19.9479 9.25016 21.5834 9.25016H24.6667V3.0835H30.8334V9.25016H55.5V3.0835H61.6667V9.25016H64.75ZM9.25004 64.7502H52.4167V70.9168H9.25004C7.61454 70.9168 6.04602 70.2671 4.88955 69.1107C3.73307 67.9542 3.08337 66.3857 3.08337 64.7502V27.7502H9.25004V64.7502ZM58.5834 46.2502H46.25V33.9168H58.5834V46.2502Z" fill="#8CA486"/>
</svg>
