<svg width="74" height="74" viewBox="0 0 74 74" fill="none" xmlns="http://www.w3.org/2000/svg">
<path d="M55.5 40.0834H53.4033L47.2367 46.2501H53.1258L58.5833 52.4167H15.4167L20.905 46.2501H27.2258L21.0592 40.0834H18.5L9.25 49.3334V61.6667C9.25 63.3022 9.8997 64.8708 11.0562 66.0272C12.2126 67.1837 13.7812 67.8334 15.4167 67.8334H58.5833C60.2188 67.8334 61.7873 67.1837 62.9438 66.0272C64.1003 64.8708 64.75 63.3022 64.75 61.6667V49.3334L55.5 40.0834ZM52.4167 24.5126L37.1542 39.7751L26.2083 28.8601L41.5017 13.5976L52.4167 24.5126ZM39.3433 7.0609L19.7025 26.7017C19.4167 26.987 19.1899 27.3258 19.0352 27.6988C18.8804 28.0718 18.8008 28.4717 18.8008 28.8755C18.8008 29.2793 18.8804 29.6792 19.0352 30.0522C19.1899 30.4252 19.4167 30.764 19.7025 31.0492L34.965 46.2501C36.1675 47.5142 38.11 47.5142 39.3125 46.2501L58.9225 26.7017C59.2083 26.4165 59.4351 26.0777 59.5898 25.7047C59.7446 25.3317 59.8242 24.9318 59.8242 24.528C59.8242 24.1242 59.7446 23.7243 59.5898 23.3513C59.4351 22.9783 59.2083 22.6395 58.9225 22.3542L43.66 7.09174C43.3818 6.80067 43.048 6.56846 42.6784 6.40886C42.3087 6.24927 41.9108 6.16555 41.5082 6.16267C41.1056 6.1598 40.7065 6.23782 40.3346 6.39212C39.9627 6.54642 39.6256 6.77384 39.3433 7.0609Z" fill="#8CA486"/>
</svg>
